<svg width="512" height="512" viewBox="0 0 512 512" fill="none" xmlns="http://www.w3.org/2000/svg">
  <defs>
    <linearGradient id="bg" x1="256" y1="36" x2="256" y2="476" gradientUnits="userSpaceOnUse">
      <stop stop-color="#2C2F34"/>
      <stop offset="1" stop-color="#101216"/>
    </linearGradient>
    <linearGradient id="body" x1="256" y1="106" x2="256" y2="406" gradientUnits="userSpaceOnUse">
      <stop stop-color="#3A3E44"/>
      <stop offset="1" stop-color="#1C1F24"/>
    </linearGradient>
    <linearGradient id="dial" x1="256" y1="152" x2="256" y2="332" gradientUnits="userSpaceOnUse">
      <stop stop-color="#E03D3D"/>
      <stop offset="1" stop-color="#841212"/>
    </linearGradient>
  </defs>
  <rect x="36" y="36" width="440" height="440" rx="104" fill="url(#bg)"/>
  <rect x="36" y="36" width="440" height="440" rx="104" stroke="rgba(255,255,255,0.45)" stroke-width="3"/>
  <rect x="70" y="70" width="372" height="372" rx="78" fill="rgba(255,255,255,0.06)"/>
  <rect x="70" y="70" width="34" height="34" fill="#BF3131"/>
  <rect x="408" y="70" width="34" height="34" fill="#BF3131"/>
  <rect x="70" y="408" width="34" height="34" fill="#BF3131"/>
  <rect x="408" y="408" width="34" height="34" fill="#BF3131"/>
  <rect x="108" y="106" width="296" height="300" rx="64" fill="url(#body)"/>
  <rect x="108" y="106" width="296" height="300" rx="64" stroke="rgba(255,255,255,0.28)" stroke-width="2.5"/>
  <path d="M151 134C185 118 242 113 303 119" stroke="rgba(255,255,255,0.12)" stroke-width="8" stroke-linecap="round"/>
  <circle cx="256" cy="242" r="90" fill="url(#dial)"/>
  <circle cx="256" cy="242" r="88.5" stroke="rgba(255,230,230,0.9)" stroke-width="3"/>
  <circle cx="256" cy="242" r="28" fill="#360B0B"/>
  <circle cx="256" cy="242" r="27" stroke="rgba(255,150,150,0.7)" stroke-width="2"/>
  <g stroke="#FCECEC" stroke-width="4" stroke-linecap="round">
    <path d="M256 162V178"/>
    <path d="M296 173L288 187"/>
    <path d="M325 202L311 210"/>
    <path d="M336 242H320"/>
    <path d="M325 282L311 274"/>
    <path d="M296 311L288 297"/>
    <path d="M256 322V306"/>
    <path d="M216 311L224 297"/>
    <path d="M187 282L201 274"/>
    <path d="M176 242H192"/>
    <path d="M187 202L201 210"/>
    <path d="M216 173L224 187"/>
  </g>
  <path d="M256 242L304 204" stroke="#FFF4F4" stroke-width="6" stroke-linecap="round"/>
  <rect x="118" y="348" width="44" height="26" rx="10" fill="#17191E" stroke="rgba(255,255,255,0.3)" stroke-width="2"/>
  <rect x="180" y="348" width="44" height="26" rx="10" fill="#17191E" stroke="rgba(255,255,255,0.3)" stroke-width="2"/>
  <rect x="242" y="348" width="44" height="26" rx="10" fill="#17191E" stroke="rgba(255,255,255,0.3)" stroke-width="2"/>
  <rect x="304" y="348" width="44" height="26" rx="10" fill="#17191E" stroke="rgba(255,255,255,0.3)" stroke-width="2"/>
</svg>
